# xmcd CD database file
#
# Track frame offsets:
#	150
#	20622
#	40217
#	60125
#	84450
#	99437
#	121516
#	145616
#	167054
#	189720
#	217449
#	237245
#	255113
#
# Disc length: 3696 seconds
#
# Revision: 0
# Processed by: cddbd v1.5.2PL0 Copyright (c) Steve Scherf et al.
# Submitted via: CDex 1.70beta2
#
DISCID=a30e6e0d
DTITLE=Jimmiy Abney - Return To Forever
DYEAR=2008
DGENRE=Jazz
TTITLE0=More of you
TTITLE1=Darlin
TTITLE2=What's on your mind
TTITLE3=Is there anybody here
TTITLE4=Come go with me
TTITLE5=Then she went away
TTITLE6=You bring me joy
TTITLE7=Open your heart
TTITLE8=Crazy love
TTITLE9=Hello
TTITLE10=Star of the story
TTITLE11=Guardian angel
TTITLE12=Let yourself go
EXTD=YEAR: 2008
EXTT0=
EXTT1=
EXTT2=
EXTT3=
EXTT4=
EXTT5=
EXTT6=
EXTT7=
EXTT8=
EXTT9=
EXTT10=
EXTT11=
EXTT12=
PLAYORDER=
